<svg xmlns="http://www.w3.org/2000/svg" width="1170" height="445" viewBox="0 0 1170 445"><path d="M10.168 223.559c0 33.778 13.237 65.314 37.277 88.799 23.911 23.369 55.837 36.244 89.889 36.244 68.95 0 125.042-56.095 125.042-125.043 0-34.05-12.869-65.982-36.238-89.88-23.489-24.062-55.027-37.28-88.804-37.28-70.12 0-127.166 57.04-127.166 127.16zm48.455 77.673c-21.472-20.901-33.297-48.489-33.297-77.673 0-61.765 50.248-111.995 112.009-111.995 29.184 0 56.771 11.815 77.677 33.28 20.77 21.336 32.207 49.294 32.207 78.715 0 60.59-49.294 109.881-109.884 109.881-29.429 0-57.381-11.432-78.712-32.208zM175.076 146.06v38.987H97.47V146.06c0-4.892-1.642-5.298-3.181-5.298-.965 0-1.914.272-2.748.784-28.926 17.545-46.198 48.214-46.198 82.013 0 32.927 16.835 62.037 46.194 79.863.835.505 1.787.77 2.752.77 2.945 0 3.181-3.111 3.181-3.143v-41.097h77.607v41.098c0 1.542.407 3.185 5.304 3.185.4 0 .95-.052 1.649-.471 27.865-16.636 45.17-47.372 45.17-80.206 0-33.574-17.298-65.766-44.07-82.012a5.214 5.214 0 0 0-2.749-.784 5.309 5.309 0 0 0-5.305 5.298zM76.842 266.168c-9.385-14.322-13.756-27.86-13.756-42.61 0-19.396 7.477-34.96 13.756-44.597l3.13-4.811-.246 8.408.003 80.057c-.003-.04.075 2.627.075 2.627l.167 5.705-3.13-4.779zm20.628-25.574v-37.81h77.606v39.426H97.47v-1.616zm95.203-60.721l-.225-7.655 3.166 5.153c8.93 14.542 13.843 30.945 13.843 46.187 0 19.502-7.4 33.974-13.848 44.404l-3.162 5.113.255-8.63V180.84l.048.395-.077-1.363m293.912 76.686c0-9.63-7.11-16.3-22.03-16.3h-29.9v32.853h30.629c12.487 0 21.301-4.45 21.301-16.553zm-5.38-65.2c0-9.389-6.381-15.815-15.923-15.815H434.65v31.126h29.898c10.763 0 16.655-7.906 16.655-15.312zm49.958 69.892c0 28.163-25.95 46.688-52.178 46.688h-85.477V140.71h78.37c30.142 0 51.933 15.062 51.933 45.947 0 26.435-23.004 34.335-23.004 34.335-.003.249 30.356 7.169 30.356 40.258m127.951-37.042c0-26.182-12.008-47.425-35.74-47.425-23.767 0-35.524 21.243-35.524 47.425 0 26.427 11.757 47.672 35.525 47.672 23.73-.004 35.74-21.245 35.74-47.672zm41.142 0c0 49.154-28.165 87.69-76.881 87.69-48.5 0-76.914-38.536-76.914-87.69 0-48.907 28.412-87.683 76.884-87.683 48.749-.006 76.911 38.776 76.911 87.683m143.63 33.093c0 36.806-33.306 54.592-64.64 54.592-36.252 0-54.875-13.838-69.558-31.375l26.683-26.188c11.273 14.33 25.984 21.496 42.388 21.496 13.465 0 22.521-6.67 22.521-16.55 0-10.62-7.999-13.927-29.898-18.528l-5.867-1.233c-26.355-5.535-48.012-20.502-48.012-50.383 0-32.849 26.709-52.61 61.988-52.61 29.873 0 49.226 12.84 60.99 26.166l-25.976 25.7c-8.082-8.645-20.335-15.564-34.281-15.564-9.54 0-20.33 4.447-20.33 15.564 0 10.128 11.217 13.799 25.47 16.796l5.891 1.24c23.844 5.002 52.63 12.349 52.63 50.877m159.073 18.276c-17.138 24.7-33.063 36.316-66.125 36.316-47.011 0-77.398-39.034-77.398-88.682 0-47.176 27.44-86.452 77.88-86.452 27.687 0 47.528 10.869 64.423 36.312l-33.791 22.48c-6.87-11.863-15.68-18.777-30.386-18.777-18.6 0-36.5 16.64-36.5 46.441 0 33.39 19.357 48.66 37.742 48.66 15.894 0 23.254-7.903 30.117-19.27l34.038 22.972m156.873 32.363h-44.09v-65.952h-50.716v65.952h-43.823V140.712h43.823v61.51h50.717v-61.51h44.09V307.94"/></svg>